<svg version="1" xmlns="http://www.w3.org/2000/svg" width="533.333" height="533.333" viewBox="0 0 400.000000 400.000000"><path d="M184.5 29c-2.2.5-7.9 1.9-12.7 3-19.8 4.7-38.3 15.1-56.4 31.7-6 5.5-13.2 15.3-20.2 27.4-10.2 17.8-14 30.1-23.7 77.9-3.9 19.5-6 43.7-4.6 52.4 1.7 9.8 2.9 14.6 6.2 25.6 7.1 23.7 9.1 45.2 5.5 58.9-2.6 9.7-8.6 21.1-17.9 33.9-5.6 7.7-8.2 13.4-11.8 25.7-2.7 9.4-3.2 12.7-3.3 22.8l-.1 11.7H63l-.2-18c-.2-16.9-.1-18.1 1.9-20.2 1.1-1.3 3-4.1 4.2-6.3 1.1-2.2 3.4-5.8 5-8 13-18.1 19.7-33.3 21.9-50 1-7 3-7.1 10.1-.3 6.1 5.8 15.6 13.8 16.5 13.8.3 0 3.4 1.7 6.8 3.8 8.2 4.9 10.1 5.8 17.3 8.2 10.8 3.7 31.3 6.2 35.9 4.4 2.1-.8 2.1-8 .1-12-1.4-3-1.4-3-11.5-3.2-12.6-.3-17.4-1.3-26.4-5.8-14.4-7.1-20.8-11.6-30.4-21.9-9.4-10.1-13-15.3-19.7-28.5-5.5-10.8-5.6-11-8-20.5-4.2-16.6-5.1-31.7-2.6-46.5.7-4.1 1.7-10.2 2.2-13.5 1.4-9.2 2.8-16.6 3.9-21.5.6-2.5 1.5-6.3 2-8.5 2.3-10.3 4.3-17.8 6.4-23.5.8-2.5 1.6-5.1 1.6-5.8 0-.7 1.6-4.5 3.6-8.5 2-3.9 4.6-9 5.7-11.2 2.5-5 9.6-14.5 15.6-20.8 14.7-15.5 39.2-28.1 59.4-30.7 17.3-2.2 54.1-.6 67.1 2.8 7.3 2 19.1 8.8 24.5 14.3 13.4 13.6 14.3 15.3 10.1 22-4.1 6.6-4.2 15.1-.5 21.6 1.4 2.3 2.7 4.3 2.8 4.3.1 0 2.7.9 5.7 2 4.6 1.7 5.9 1.8 7.8.8 3.4-1.8 5.3-.1 8 7.3 4.9 13.4 8.5 18.9 20.6 31.6 10 10.5 12.2 13.5 15.4 20.3 4.7 10.2 5 14.1 3.7 44.4-.5 9.4-.3 15.4.5 18.5 1.9 7.3 6.2 19.4 7.8 22.1 2.6 4.4 17.8 18.6 21.8 20.5 2.2 1 6.5 3.5 9.6 5.7 3.1 2.1 6.9 4.3 8.3 4.8l2.5 1v-9c0-7.9-.2-8.9-2-9.5-3.7-1.2-16.5-10.3-21.3-15.1-9.7-9.8-13.7-24.4-11.8-43.2 2.3-22.3.9-33.9-5.8-47.8-3.1-6.6-6-10.3-15-19.8-12.6-13.4-14.5-16.2-20.7-31.7-8.2-20.3-19.1-40.6-28.3-52.3-9.4-12-25.2-23.1-38.6-27-11-3.3-24.2-4.8-46-5.1-12.1-.3-23.8 0-26 .5z"/><path d="M234.5 75.2c-11.2 1.6-15.3 3.5-22 10.3-3.4 3.4-6.7 7.7-7.5 9.6-.7 1.8-1.9 4.1-2.6 4.9-2.9 3.5-6.7 29.8-5.9 40.5 1.2 15.1 4 32.9 5.5 35 .4.5 1.5 3.5 2.5 6.5s2.1 5.9 2.5 6.5c.4.5 1.5 3.3 2.4 6.1.9 2.8 2.8 6.2 4.1 7.4 1.4 1.3 2.5 2.9 2.5 3.6 0 .6.7 1.7 1.6 2.5.8.7 3.2 3.8 5.2 6.8 2 3.1 4.4 6.5 5.4 7.6 1.9 2.1 6.5 8.5 12.4 17.2 1.9 2.9 3.8 5.3 4.3 5.3.4 0 1.7-2.1 2.9-4.8 1.9-4.1 12-22.8 18.1-33.5 2.3-4.1 6.2-9.9 7.2-10.7 3.7-3 9.4-22.6 11-37.5.5-5 1.1-9.6 1.4-10.3.7-1.9-1.4-22-2.9-27.7-.8-2.8-1.9-7.5-2.5-10.6-1.2-5.6-7.2-16.8-12.1-22.5-3-3.4-9.7-8.7-12.5-9.9-1.1-.4-3.8-1.1-6-1.5-2.2-.5-4.9-1-6-1.3-1.1-.2-5.1 0-9 .5zM250 92.5c5.8 3 12.8 14.1 15.1 24.2.6 2.7 1.5 6.4 2.1 8.3 1.2 4.5.5 40.2-1 45.5-.6 2.2-1.5 5.7-2 7.8-.6 2.1-2.3 5.7-3.9 7.9-3.4 4.9-10.3 15.9-10.3 16.3 0 .2-1.4 2.7-3.2 5.5-1.9 3.1-3.7 5-4.7 4.8-.9-.2-3.4-3.1-5.6-6.4-2.3-3.3-5.7-8-7.6-10.5-4.6-5.7-4.3-5.1-8.5-16.6-5.8-16-8.4-28.8-8.4-42.6 0-10.2 1.7-23.5 3.1-25.2.5-.5.9-1.6.9-2.5 0-2.6 7.9-13.7 11.3-15.9 4-2.6 18.1-3 22.7-.6zM149.3 77.7c-4.3 2.2-5.3 5.5-5.3 18.5 0 13.3 1.1 16.4 7.5 20.6 8.6 5.7 17.6 4.1 22.1-3.8 2-3.5 2.4-5.6 2.4-12.2 0-7.2-.3-8.6-2.9-12.8-1.6-2.6-3.1-5.6-3.3-6.6-.9-4.6-13.9-7-20.5-3.7z"/></svg>